<?xml version="1.0" encoding="UTF-8"?>
<svg width="32px" height="32px" viewBox="0 0 32 32" version="1.1" xmlns="http://www.w3.org/2000/svg" xmlns:xlink="http://www.w3.org/1999/xlink">
    <!-- Generator: Sketch 46.2 (44496) - http://www.bohemiancoding.com/sketch -->
    <title>icon-contact-1</title>
    <desc>Created with Sketch.</desc>
    <defs></defs>
    <g id="Contact" stroke="none" stroke-width="1" fill="none" fill-rule="evenodd">
        <g transform="translate(-852.000000, -397.000000)" id="icon-contact-1">
            <g transform="translate(852.000000, 397.000000)">
                <g id="Group-10">
                    <rect id="Rectangle-3-Copy-2" fill="#1C1238" x="0" y="0" width="32" height="32"></rect>
                    <path d="M11.5277778,12.9175497 L11.5277778,22.5185185 L8.47222222,22.5185185 L8.47222222,12.9175497 L11.5277778,12.9175497 Z M11.7222222,9.95297205 C11.7283951,10.424465 11.5725325,10.8184463 11.2546296,11.1349278 C10.9367268,11.4514094 10.5185211,11.6096478 10,11.6096478 L9.98148148,11.6096478 C9.47530611,11.6096478 9.06790278,11.4514094 8.75925926,11.1349278 C8.45061574,10.8184463 8.2962963,10.424465 8.2962963,9.95297205 C8.2962963,9.47502032 8.45524532,9.07942431 8.77314815,8.76617217 C9.09105097,8.45292002 9.50617028,8.2962963 10.0185185,8.2962963 C10.5308668,8.2962963 10.9413565,8.45292002 11.25,8.76617217 C11.5586435,9.07942431 11.7160494,9.47502032 11.7222222,9.95297205 Z M16.2592593,14.2818749 C16.3768442,14.0879659 16.4972135,13.9173785 16.6203704,13.770108 C16.7500006,13.6150966 16.9243816,13.4471701 17.1435185,13.2663235 C17.3626554,13.0854769 17.6311713,12.945 17.9490741,12.8448885 C18.2669769,12.744777 18.6203684,12.694722 19.0092593,12.694722 C20.0648201,12.694722 20.913577,13.0612538 21.5555556,13.7943284 C22.1975341,14.527403 22.5185185,15.6011636 22.5185185,17.0156423 L22.5185185,22.5185185 L19.4722222,22.5185185 L19.4722222,17.3837925 C19.4722222,16.7056178 19.3472235,16.1743888 19.0972222,15.7900898 C18.847221,15.4057908 18.4567928,15.2136442 17.9259259,15.2136442 C17.5370351,15.2136442 17.2114211,15.3250569 16.9490741,15.5478858 C16.6867271,15.7707146 16.4907414,16.0468245 16.3611111,16.3762236 C16.2932095,16.5699878 16.2592593,16.8315656 16.2592593,17.1609648 L16.2592593,22.5185185 L13.212963,22.5185185 C13.2253087,19.9414545 13.2314815,17.8520617 13.2314815,16.2502775 C13.2314815,14.6484934 13.2283951,13.6926042 13.2222222,13.3825815 L13.212963,12.9175497 L16.2592593,12.9175497 L16.2592593,14.2818749 L16.2592593,14.2818749 Z" id="Combined-Shape" fill="#FFFFFF"></path>
                </g>
            </g>
        </g>
    </g>
</svg>